<?xml version="1.0" encoding="UTF-8"?><svg id="Layer_1" xmlns="http://www.w3.org/2000/svg" viewBox="0 0 512 512"><defs><style>.cls-1{fill:#e4032c;}.cls-2{fill:#212721;}</style></defs><g id="layer1"><path id="path36" class="cls-2" d="M68.75,319.51h3.21v-18.21h-3.21v18.21Z"/><path id="path37" class="cls-2" d="M92.08,317.74c-1.15,1.23-3.47,2.06-5.85,2.06-5.58,0-9.41-3.72-9.41-9.39,0-5.23,3.31-9.39,9.33-9.39,2.37,0,4.36.76,5.55,1.85l-1.44,2.37c-1.1-.73-2.29-1.23-4.12-1.23-3.39,0-5.95,2.44-5.95,6.4s2.58,6.4,6.31,6.4c1.54,0,3.08-.49,4.33-1.46l1.23,2.39h0Z"/><path id="path38" class="cls-2" d="M96.05,301.3h10.56v2.99h-7.36v4.53h6.57v2.99h-6.57v4.71h7.61v2.99h-10.82v-18.21Z"/><path id="path39" class="cls-2" d="M133.09,317.74c-1.15,1.23-3.47,2.06-5.85,2.06-5.58,0-9.41-3.72-9.41-9.39,0-5.23,3.31-9.39,9.33-9.39,2.37,0,4.36.76,5.56,1.85l-1.44,2.37c-1.1-.73-2.29-1.23-4.12-1.23-3.39,0-5.95,2.44-5.95,6.4s2.58,6.4,6.31,6.4c1.54,0,3.08-.49,4.33-1.46l1.23,2.39h0Z"/><path id="path40" class="cls-2" d="M140.28,304.29v5.41h2.08c1.85,0,3.5-.94,3.5-2.81,0-1.43-.79-2.65-3.39-2.65-.6,0-1.34.02-2.19.05M137.06,319.51v-18.21c1.02,0,5.03-.05,5.56-.05,4.99,0,6.62,2.47,6.62,5.62s-2.01,4.68-3.52,5.21l5.71,7.44h-3.89l-5.03-6.82h-2.25v6.82h-3.21.01Z"/><path id="path41" class="cls-2" d="M155.15,301.3h10.56v2.99h-7.35v4.53h6.57v2.99h-6.57v4.71h7.61v2.99h-10.82v-18.21Z"/><path id="path42" class="cls-2" d="M175.56,311.86h5.34l-2.65-6.48-2.69,6.48ZM176.92,301.25h2.82l7.72,18.26h-3.42l-1.91-4.66h-7.8l-1.91,4.66h-3.24l7.72-18.26h.01Z"/><path id="path43" class="cls-2" d="M191.15,301.3h3.24l6.22,8.51,5.95-8.51h3.03v18.21h-3.19v-13.16l-5.76,8.09h-.47l-5.81-8.01v13.08h-3.21v-18.21Z"/><path id="path44" class="cls-2" d="M322.57,317.74c-1.14,1.23-3.47,2.06-5.84,2.06-5.59,0-9.42-3.72-9.42-9.39,0-5.23,3.32-9.39,9.33-9.39,2.37,0,4.36.76,5.56,1.85l-1.44,2.37c-1.1-.73-2.28-1.23-4.11-1.23-3.39,0-5.94,2.44-5.94,6.4s2.58,6.4,6.32,6.4c1.54,0,3.07-.49,4.32-1.46l1.23,2.39Z"/><path id="path45" class="cls-2" d="M334.43,316.81c3.84,0,6.14-2.81,6.14-6.4,0-3.77-2.69-6.4-6.14-6.4s-6.1,2.63-6.1,6.4,2.69,6.4,6.1,6.4M334.43,301.02c5.43,0,9.53,3.72,9.53,9.39s-4.1,9.39-9.53,9.39-9.5-3.72-9.5-9.39c0-5.28,3.89-9.39,9.5-9.39"/><path id="path46" class="cls-2" d="M348.63,301.3h3.23l6.23,8.51,5.95-8.51h3.03v18.21h-3.19v-13.16l-5.76,8.09h-.47l-5.81-8.01v13.08h-3.21v-18.21Z"/><path id="path47" class="cls-2" d="M376.16,304.29v5.59c.75.08,1.53.13,2.27.13,1.91,0,3.39-.91,3.39-2.94,0-1.89-1.17-2.84-3.37-2.84-.66,0-1.44.02-2.29.05M372.94,319.51v-18.21c1.02,0,3.92-.06,5.2-.06,5.36,0,7.06,2.86,7.06,5.85s-2.31,5.91-6.68,5.91c-.55,0-1.59,0-2.38-.08v6.58h-3.21Z"/><path id="path48" class="cls-2" d="M392.28,311.86h5.34l-2.65-6.48-2.69,6.48ZM393.63,301.25h2.82l7.71,18.26h-3.41l-1.91-4.66h-7.8l-1.91,4.66h-3.23l7.72-18.26Z"/><path id="path49" class="cls-2" d="M420.91,319.51l-10.05-12.61v12.61h-2.99v-18.21h2.56l10.03,12.67v-12.67h3v18.21h-2.56Z"/><path id="path50" class="cls-2" d="M436.76,311.91v7.59h-3.21v-7.59l-6.44-10.61h3.65l4.53,7.62,4.49-7.62h3.48l-6.5,10.61Z"/><path id="path51" class="cls-2" d="M230.13,177.41h15.52v3.08h-6.1v15.69h-3.31v-15.69h-6.1v-3.08Z"/><path id="path52" class="cls-2" d="M261.4,188.17h-8.61v8.02h-3.31v-18.78h3.31v7.67h8.61v-7.67h3.28v18.78h-3.28v-8.02Z"/><path id="path53" class="cls-2" d="M270.72,177.41h10.9v3.08h-7.58v4.66h6.77v3.08h-6.77v4.86h7.86v3.08h-11.18v-18.78Z"/><path id="path55" class="cls-1" d="M280.32,313.47c0,6.75-5.85,13.52-10.8,16.6-5.06,3.18-9.87,4.61-11.09,4.51-19.44-1.6-36.67-12.97-36.67-26.36,0-6.6,4.99-14.81,18.95-14.81,7.73,0,14.36,3.14,17.37,5.46.54.42.83.36,1.27.08,1.98-1.34,8.02-5.5,16.33-5.5,10.03,0,20.19,5.12,20.19,16.28,0,6.83-4.6,13.95-12.52,18.81-1.99,1.24-4.33,2.29-6.85,3.2-1.42.52-2.07-.1-.56-1.2,3.71-2.78,13.21-10.11,13.21-19.27,0-6.22-5.71-12.43-15.58-12.43-7.53,0-13.08,4.26-14.12,4.96-.54.36-.89.31-1.36-.08-2.7-2.46-8.25-5.09-14.66-5.09-7.84,0-14.9,4.36-14.9,12.11,0,14.09,24.27,19.89,30.15,19.89,1.45,0,14.45-4.58,14.45-15.6,0-3.88-2.4-6.45-5.57-6.45-4.13,0-6.51,3.51-8.13,5.45-.37.45-.94.66-1.28,0-1.42-2.61-4.22-5.53-8.03-5.53-3.39,0-5.43,2.48-5.43,5.21,0,6.42,8.86,10.4,13,11.83.81.29.8,1.14-.32,1.03-5.89-.56-20.49-5.05-20.49-14.61,0-3.96,3.37-8.33,10.09-8.33,4.54,0,8.82,2.51,11.36,5.57.24.31.65.26.87.03.23-.22,5.48-5.41,11.78-5.41,4.5,0,9.37,3.09,9.37,9.62"/><path id="path5" class="cls-2" d="M480.85,201.04c-.15-.05-.35.03-.52.12,0,0-1.82.89-2.5,1.18-4.78,1.98-6.38,2.63-14.05,3.19-.75.05-4.68.2-6.44.29-1,.04-1.81.77-2.23,1.67l-16.03,36.43c-.11.23-.43.23-.53,0l-16.07-36.47c-.41-.9-1.34-1.63-2.27-1.63l-12.84.02c-.59,0-1.11.45-1.17,1.04l-6.3,57.8c-.52,3.58-2.69,7.52-5.57,10.04-.22.19-.23.45-.16.62.06.17.24.35.52.35h20.84c.29,0,.45-.18.52-.35.06-.17.06-.41-.13-.6-2.33-2.22-3.46-5.76-3.07-9.7l3.93-35.92c.03-.34.27-.59.61-.64.33-.06.65.1.79.41l19.74,42.2c.34.74,1.44.75,1.8,0l19.73-42.19c.15-.31.46-.47.8-.41.33.06.57.31.61.64l3.93,35.92c.38,3.93-.74,7.47-3.08,9.7-.19.19-.19.43-.13.6.06.17.25.35.52.35h20.86c.28,0,.45-.19.52-.35.06-.18.05-.44-.16-.63-2.87-2.52-5.06-6.46-5.57-10.04-.1-.89-4.25-38.98-4.25-38.98-.12-1.03-.37-3.51-.4-4.12-.31-6.23,1.25-8.06,2.87-10.17.27-.33,1.15-1.55,1.34-1.81,1.7-2.35,3.64-5.03,3.79-7.95.02-.4-.08-.57-.23-.61h0ZM31.13,201.05c-.15.04-.25.21-.23.6.16,2.92,2.1,5.6,3.8,7.96.18.25,1.07,1.47,1.33,1.81,1.63,2.11,3.19,3.92,2.88,10.17-.03.59-.28,3.07-.4,4.12,0,0-4.15,38.08-4.26,38.98-.51,3.58-2.69,7.52-5.56,10.04-.22.19-.23.45-.16.63.06.17.23.35.52.35h20.85c.28,0,.45-.18.52-.35.06-.17.06-.41-.13-.6-2.33-2.22-3.46-5.76-3.08-9.7l3.93-35.92c.04-.34.27-.59.61-.64.33-.06.65.1.79.41l19.73,42.2c.35.74,1.41.74,1.75,0,6.66-14.03,19.73-42.2,19.73-42.2.15-.31.47-.48.81-.42.33.06.57.31.61.64l3.93,35.92c.38,3.94-.74,7.47-3.08,9.7-.19.19-.19.43-.13.6.06.17.24.35.52.35h20.85c.28,0,.45-.19.52-.35.06-.18.06-.44-.16-.62-2.87-2.52-5.05-6.47-5.56-10.04l-6.3-57.8c-.06-.6-.57-1.04-1.17-1.05h-12.85c-.93,0-1.86.72-2.27,1.61l-16.06,36.48c-.11.23-.44.23-.53,0l-16.04-36.42c-.41-.89-1.23-1.62-2.22-1.67-1.76-.1-5.69-.24-6.44-.29-7.66-.56-9.27-1.23-14.05-3.19-.68-.29-2.5-1.18-2.5-1.18-.17-.09-.37-.16-.52-.12h0ZM224.26,214.09c-19.82,0-33.73,12.92-33.73,31.49,0,18.57,12.84,31.29,32.93,31.29,7.64,0,13.09-1.1,20.97-3.09.28-.07.5-.33.5-.63v-18.92c0-2.26.61-4.72,1.81-6.38.31-.42,0-.99-.53-.99l-14.7-.07c-.53,0-.83.61-.51,1.03,1.39,1.81,2.2,4.34,2.2,6.42v12.01c0,.3-.2.56-.51.63-2.49.55-5.5.93-8.69.91-10.98-.06-20.44-7.42-20.44-22.21,0-13.94,9.4-22.91,20.83-22.91,9.03,0,15.17,2.87,18.57,7.19.38.48,1.14.2,1.14-.4v-11.34c0-.28-.16-.53-.42-.61-5.17-1.84-12.2-3.41-19.43-3.41h0ZM257.92,215.6c-.57,0-.87.68-.46,1.1,2.59,2.6,5.1,6.49,5.1,10.08v41.45c0,2.13-1.08,4.64-2.56,6.38-.36.42-.06,1.06.5,1.06h14.77c.56,0,.84-.64.48-1.06-1.38-1.67-2.28-4.18-2.28-6.38v-30.4c0-.6.75-.88,1.14-.41l31.5,38.03c.13.15.31.23.51.23h9.14c.36,0,.65-.29.65-.64v-51.98c0-2.26.75-4.78,2.05-6.42.32-.42,0-1.03-.52-1.03h0s-13.98,0-13.98,0c-.53,0-.85.61-.52,1.03,1.09,1.38,2.06,3.91,2.06,6.43v30.35c0,.61-.76.88-1.15.41l-31.5-37.99c-.12-.14-.31-.23-.51-.23h-14.42ZM372.11,215.62c-.55,0-.83.63-.5,1.06,1.2,1.54,1.91,4.26,2,6.4v31.95c0,8.87-4.51,13.22-13.35,13.22-7.98,0-13.19-4.35-13.19-13.22v-31.95c0-2.25.75-4.78,2.05-6.42.33-.42.02-1.03-.52-1.03h-16.29c-.54,0-.85.61-.52,1.03,1.29,1.63,2.05,4.17,2.05,6.42v31.95c0,14.42,11.73,22.05,26.43,22.05s24.15-7.64,24.15-22.05v-31.95c0-2.25.75-4.78,2.05-6.42.32-.42,0-1.03-.52-1.03h-.02s-13.82-.01-13.82-.01ZM146.53,215.63c-.55,0-.83.62-.5,1.05,1.58,2.06,1.71,5.13.98,7.48-.01.02-.02.08-.02.08l-18.8,44.34c-.94,1.97-2.42,4.27-4.01,6.07-.36.41-.06,1.06.49,1.06h14.91c.51,0,.81-.54.55-.97-1.14-1.92-1.39-4.69-.56-6.79l2.95-7.21h24.37l3.03,7.21c.27.63.45,1.21.49,2.14.06,1.64-.44,3.35-1.38,4.61-.3.42.02,1.02.55,1.02h17.51c.55,0,.86-.64.48-1.05-1.58-1.79-3.06-4.09-3.99-6.05l-22.54-52.38c-.15-.35-.51-.59-.9-.59h-13.6ZM154.54,232.39c.24,0,.49.13.6.4l8.03,19.09h-17.03l7.81-19.09c.11-.26.35-.4.59-.4Z"/></g></svg>